<svg xmlns="http://www.w3.org/2000/svg" width="12" height="12" fill="none" viewBox="0 0 12 12">
    <path fill="#3E1BDB" fill-rule="evenodd" d="M9.11.496a1.693 1.693 0 0 1 2.394 2.394L6.351 8.044a.542.542 0 0 1-.252.143l-2.17.542a.542.542 0 0 1-.658-.658l.542-2.17a.542.542 0 0 1 .143-.252L9.11.496zM5.69 7.17l5.047-5.047a.608.608 0 1 0-.86-.86L4.83 6.31l-.287 1.147L5.69 7.17zM1.627 1.15h3.798a.542.542 0 1 1 0 1.086H1.627c-.3 0-.542.243-.542.542v7.595c0 .3.243.542.542.542h7.595c.3 0 .542-.243.542-.542V6.575a.542.542 0 1 1 1.085 0v3.798c0 .898-.728 1.627-1.627 1.627H1.627A1.627 1.627 0 0 1 0 10.373V2.778c0-.899.729-1.627 1.627-1.627z" clip-rule="evenodd"/>
</svg>
