<svg xmlns="http://www.w3.org/2000/svg" width="16" height="16"><g fill="none" fill-rule="evenodd"><path fill="#FFF" d="M-420-207h1440v2486H-420z"/><g fill="#3E1BDB" transform="translate(-12 -14)"><rect width="735" height="43" x=".5" y=".5" fill-opacity=".02" stroke="#3E1BDB" rx="2"/><path fill-rule="nonzero" d="M20 14c4.42 0 8 3.58 8 8s-3.58 8-8 8-8-3.58-8-8 3.58-8 8-8zm0 1.077a6.88 6.88 0 00-4.896 2.027c-1.308 1.308-2.027 3.046-2.027 4.896s.72 3.588 2.027 4.896c1.308 1.308 3.046 2.027 4.896 2.027s3.588-.72 4.896-2.027c1.308-1.308 2.027-3.046 2.027-4.896s-.72-3.588-2.027-4.896A6.876 6.876 0 0020 15.077zm.73 5.073v5.542h-1.468V20.15h1.469zm-.734-2.138c.439 0 .796.326.796.765 0 .438-.357.77-.796.77a.774.774 0 01-.788-.77c0-.439.357-.765.788-.765z"/></g></g></svg>