<svg width="12" height="15" xmlns="http://www.w3.org/2000/svg"><path d="M7.429 0H3.16c-.79 0-1.447.627-1.447 1.424v.307h-.268C.657 1.73 0 2.358 0 3.155V13.54C0 14.337.657 15 1.446 15h7.429c.79 0 1.41-.663 1.41-1.46v-.27h.304c.79 0 1.411-.664 1.411-1.461V4.615L7.429 0zm0 1.608l2.978 3.007H7.43V1.608zM9.143 13.54c0 .17-.122.306-.268.306H1.446a.32.32 0 01-.303-.306V3.155c0-.148.136-.27.303-.27h.268v9.212c0 .797.372 1.172 1.161 1.172h6.268v.27zm1.714-1.731c0 .17-.121.306-.268.306H3.161a.32.32 0 01-.304-.306V1.424c0-.148.136-.27.304-.27h3.125v4.615h4.571v6.04z" fill="#FFF" fill-rule="nonzero"/></svg>