<!-- Generated by IcoMoon.io -->
<svg version="1.1" xmlns="http://www.w3.org/2000/svg" width="1024" height="1024" viewBox="0 0 1024 1024">
<title></title>
<g id="icomoon-ignore">
</g>
<path d="M443.733 102.4c-188.109 0-341.333 153.224-341.333 341.333s153.224 341.333 341.333 341.333c81.801 0 156.924-29.048 215.8-77.267l203.8 203.8c6.222 6.473 14.954 10.495 24.625 10.495 18.853 0 34.137-15.284 34.137-34.137 0-9.671-4.022-18.403-10.483-24.614l-203.811-203.811c48.219-58.876 77.267-133.999 77.267-215.8 0-188.109-153.224-341.333-341.333-341.333zM443.733 170.667c151.215 0 273.067 121.852 273.067 273.067s-121.852 273.067-273.067 273.067c-151.215 0-273.067-121.852-273.067-273.067s121.852-273.067 273.067-273.067z"></path>
</svg>
